<svg width="25" height="25" viewBox="0 0 25 25" fill="none" xmlns="http://www.w3.org/2000/svg">
<path d="M8.25 19.0291C7.45435 19.0291 6.69129 18.713 6.12868 18.1504C5.56607 17.5878 5.25 16.8247 5.25 16.0291V8.02905C5.25 7.2334 5.56607 6.47034 6.12868 5.90773C6.69129 5.34512 7.45435 5.02905 8.25 5.02905C8.51522 5.02905 8.76957 4.9237 8.95711 4.73616C9.14464 4.54862 9.25 4.29427 9.25 4.02905C9.25 3.76384 9.14464 3.50948 8.95711 3.32195C8.76957 3.13441 8.51522 3.02905 8.25 3.02905C6.92392 3.02905 5.65215 3.55584 4.71447 4.49352C3.77678 5.4312 3.25 6.70297 3.25 8.02905V16.0291C3.25 17.3551 3.77678 18.6269 4.71447 19.5646C5.65215 20.5023 6.92392 21.0291 8.25 21.0291C8.51522 21.0291 8.76957 20.9237 8.95711 20.7362C9.14464 20.5486 9.25 20.2943 9.25 20.0291C9.25 19.7638 9.14464 19.5095 8.95711 19.3219C8.76957 19.1344 8.51522 19.0291 8.25 19.0291ZM16.25 3.02905C15.9848 3.02905 15.7304 3.13441 15.5429 3.32195C15.3554 3.50948 15.25 3.76384 15.25 4.02905C15.25 4.29427 15.3554 4.54862 15.5429 4.73616C15.7304 4.9237 15.9848 5.02905 16.25 5.02905C17.0456 5.02905 17.8087 5.34512 18.3713 5.90773C18.9339 6.47034 19.25 7.2334 19.25 8.02905V16.0291C19.25 16.8247 18.9339 17.5878 18.3713 18.1504C17.8087 18.713 17.0456 19.0291 16.25 19.0291C15.9848 19.0291 15.7304 19.1344 15.5429 19.3219C15.3554 19.5095 15.25 19.7638 15.25 20.0291C15.25 20.2943 15.3554 20.5486 15.5429 20.7362C15.7304 20.9237 15.9848 21.0291 16.25 21.0291C17.5761 21.0291 18.8479 20.5023 19.7855 19.5646C20.7232 18.6269 21.25 17.3551 21.25 16.0291V8.02905C21.25 6.70297 20.7232 5.4312 19.7855 4.49352C18.8479 3.55584 17.5761 3.02905 16.25 3.02905Z" fill="white"/>
<path d="M16.1788 15.4136C16.1281 15.5355 16.0537 15.6461 15.9599 15.7391C15.867 15.8328 15.7564 15.9072 15.6345 15.9579C15.5127 16.0087 15.382 16.0349 15.2499 16.0349C15.1179 16.0349 14.9872 16.0087 14.8654 15.9579C14.7435 15.9072 14.6329 15.8328 14.5399 15.7391L12.2499 13.4391L9.95994 15.7391C9.86698 15.8328 9.75638 15.9072 9.63452 15.9579C9.51266 16.0087 9.38195 16.0349 9.24994 16.0349C9.11793 16.0349 8.98722 16.0087 8.86536 15.9579C8.7435 15.9072 8.6329 15.8328 8.53994 15.7391C8.44621 15.6461 8.37182 15.5355 8.32105 15.4136C8.27028 15.2918 8.24414 15.1611 8.24414 15.0291C8.24414 14.897 8.27028 14.7663 8.32105 14.6445C8.37182 14.5226 8.44621 14.412 8.53994 14.3191L10.8399 12.0291L8.53994 9.73906C8.35164 9.55075 8.24585 9.29536 8.24585 9.02906C8.24585 8.76275 8.35164 8.50736 8.53994 8.31906C8.72824 8.13075 8.98364 8.02496 9.24994 8.02496C9.51624 8.02496 9.77164 8.13075 9.95994 8.31906L12.2499 10.6191L14.5399 8.31906C14.7282 8.13075 14.9836 8.02496 15.2499 8.02496C15.5162 8.02496 15.7716 8.13075 15.9599 8.31906C16.1482 8.50736 16.254 8.76275 16.254 9.02906C16.254 9.29536 16.1482 9.55075 15.9599 9.73906L13.6599 12.0291L15.9599 14.3191C16.0537 14.412 16.1281 14.5226 16.1788 14.6445C16.2296 14.7663 16.2557 14.897 16.2557 15.0291C16.2557 15.1611 16.2296 15.2918 16.1788 15.4136Z" fill="#FB494A"/>
</svg>
