<svg width="35" height="36" viewBox="0 0 35 36" fill="none" xmlns="http://www.w3.org/2000/svg">
<path d="M30.625 13.5665C30.6098 13.4326 30.5805 13.3006 30.5375 13.1728V13.0415C30.4674 12.8916 30.3739 12.7538 30.2604 12.6332L21.5104 3.88322C21.3899 3.76978 21.252 3.67625 21.1021 3.60613C21.0586 3.59995 21.0144 3.59995 20.9708 3.60613C20.8227 3.52117 20.6591 3.46664 20.4896 3.44572H14.5833C13.423 3.44572 12.3102 3.90665 11.4897 4.72712C10.6693 5.5476 10.2083 6.66039 10.2083 7.82072V9.27905H8.75C7.58968 9.27905 6.47688 9.73999 5.65641 10.5605C4.83594 11.3809 4.375 12.4937 4.375 13.654V28.2374C4.375 29.3977 4.83594 30.5105 5.65641 31.331C6.47688 32.1514 7.58968 32.6124 8.75 32.6124H20.4167C21.577 32.6124 22.6898 32.1514 23.5103 31.331C24.3307 30.5105 24.7917 29.3977 24.7917 28.2374V26.779H26.25C27.4103 26.779 28.5231 26.3181 29.3436 25.4976C30.1641 24.6772 30.625 23.5644 30.625 22.404V13.654V13.5665ZM21.875 8.41863L25.6521 12.1957H23.3333C22.9466 12.1957 22.5756 12.0421 22.3021 11.7686C22.0286 11.4951 21.875 11.1242 21.875 10.7374V8.41863ZM21.875 28.2374C21.875 28.6242 21.7214 28.9951 21.4479 29.2686C21.1744 29.5421 20.8034 29.6957 20.4167 29.6957H8.75C8.36323 29.6957 7.99229 29.5421 7.7188 29.2686C7.44531 28.9951 7.29167 28.6242 7.29167 28.2374V13.654C7.29167 13.2673 7.44531 12.8963 7.7188 12.6229C7.99229 12.3494 8.36323 12.1957 8.75 12.1957H10.2083V22.404C10.2083 23.5644 10.6693 24.6772 11.4897 25.4976C12.3102 26.3181 13.423 26.779 14.5833 26.779H21.875V28.2374ZM27.7083 22.404C27.7083 22.7908 27.5547 23.1618 27.2812 23.4352C27.0077 23.7087 26.6368 23.8624 26.25 23.8624H14.5833C14.1966 23.8624 13.8256 23.7087 13.5521 23.4352C13.2786 23.1618 13.125 22.7908 13.125 22.404V7.82072C13.125 7.43394 13.2786 7.06301 13.5521 6.78952C13.8256 6.51603 14.1966 6.36238 14.5833 6.36238H18.9583V10.7374C18.9583 11.8977 19.4193 13.0105 20.2397 13.831C21.0602 14.6514 22.173 15.1124 23.3333 15.1124H27.7083V22.404Z" fill="#fff"/>
</svg>
