<svg width="28" height="29" viewBox="0 0 28 29" fill="none" xmlns="http://www.w3.org/2000/svg">
<path d="M25 1.31622H9C8.42083 1.31622 7.86537 1.5463 7.45584 1.95584C7.0463 2.36537 6.81622 2.92083 6.81622 3.5V7.31622H3C2.42083 7.31622 1.86537 7.5463 1.45584 7.95584C1.0463 8.36537 0.816224 8.92083 0.816224 9.5V25.5C0.816224 26.0792 1.0463 26.6346 1.45584 27.0442C1.86537 27.4537 2.42083 27.6838 3 27.6838H19C19.5792 27.6838 20.1346 27.4537 20.5442 27.0442C20.9537 26.6346 21.1838 26.0792 21.1838 25.5V21.6838H25C25.5792 21.6838 26.1346 21.4537 26.5442 21.0442C26.9537 20.6346 27.1838 20.0792 27.1838 19.5V3.5C27.1838 2.92083 26.9537 2.36537 26.5442 1.95584C26.1346 1.5463 25.5792 1.31622 25 1.31622ZM16.8162 23.3162H5.18378V11.6838H16.8162V23.3162ZM22.8162 17.3162H21.1838V9.5C21.1838 8.92083 20.9537 8.36537 20.5442 7.95584C20.1346 7.5463 19.5792 7.31622 19 7.31622H11.1838V5.68378H22.8162V17.3162Z" fill="white" fill-opacity="0.3" stroke="black" stroke-width="1.36755"/>
</svg>
